<svg width="512" height="512" viewBox="0 0 512 512" fill="none" xmlns="http://www.w3.org/2000/svg">
<path fill-rule="evenodd" clip-rule="evenodd" d="M326.016 37.8576C329.903 42.6836 331.886 49.196 335.85 62.2212L422.468 346.761C390.443 330.147 355.629 318.165 318.912 311.701L262.516 121.119C261.593 118.001 258.729 115.862 255.477 115.862C252.217 115.862 249.347 118.012 248.432 121.141L192.718 311.604C155.832 318.04 120.858 330.044 88.6964 346.717L175.739 62.1552H175.739C179.716 49.1528 181.705 42.6516 185.593 37.8342C189.025 33.5813 193.489 30.2784 198.56 28.2401C204.304 25.9314 211.102 25.9314 224.7 25.9314H286.87C300.485 25.9314 307.292 25.9314 313.041 28.245C318.117 30.2874 322.584 33.597 326.016 37.8576Z" fill="black"/>
<path fill-rule="evenodd" clip-rule="evenodd" d="M336.38 360.302C322.101 372.512 293.601 380.839 260.772 380.839C220.479 380.839 186.707 368.295 177.745 351.424C174.542 361.093 173.823 372.158 173.823 379.227C173.823 379.227 171.712 413.936 195.854 438.08C195.854 425.544 206.017 415.384 218.552 415.384C240.039 415.384 240.014 434.128 239.995 449.336C239.994 449.792 239.994 450.244 239.994 450.692C239.994 473.776 254.102 493.564 274.166 501.908C271.17 495.744 269.488 488.82 269.488 481.508C269.488 459.492 282.414 451.292 297.435 441.764C309.388 434.184 322.667 425.764 331.819 408.868C336.594 400.052 339.306 389.957 339.306 379.227C339.306 372.629 338.281 366.27 336.38 360.302Z" fill="black"/>
</svg>
